<svg xmlns="http://www.w3.org/2000/svg" width="256" height="256" xml:space="preserve"><g style="stroke:none;stroke-width:0;stroke-dasharray:none;stroke-linecap:butt;stroke-linejoin:miter;stroke-miterlimit:10;fill:none;fill-rule:nonzero;opacity:1"><path d="M59.51 10.921a1.5 1.5 0 0 0-.171 2.114L85.255 43.5H1.5a1.5 1.5 0 1 0 0 3h83.755L59.339 76.965a1.5 1.5 0 0 0 2.285 1.944l28.019-32.938c.014-.016.019-.038.032-.054.07-.09.138-.182.187-.288.012-.026.016-.053.026-.079.013-.032.022-.063.032-.095.048-.149.08-.302.08-.455 0-.153-.032-.306-.08-.455-.01-.032-.019-.063-.032-.094-.01-.026-.015-.053-.027-.079a1.498 1.498 0 0 0-.187-.288c-.013-.017-.018-.038-.032-.054L61.624 11.092a1.5 1.5 0 0 0-2.114-.171z" style="stroke:none;stroke-width:1;stroke-dasharray:none;stroke-linecap:butt;stroke-linejoin:miter;stroke-miterlimit:10;fill:#606266;fill-rule:nonzero;opacity:1" transform="translate(1.964 1.964) scale(2.8008)"/></g></svg>